<svg preserveAspectRatio="none" data-bbox="20 20 160 160" viewBox="20 20 160 160" height="200" width="200" xmlns="http://www.w3.org/2000/svg" data-type="shape" role="presentation" aria-hidden="true" aria-label="">
    <g>
        <path d="M98.322 180v-60.16c0-4.101-3.345-6.551-6.58-6.551-1.714 0-3.341.684-4.584 1.927l-42.54 42.54-2.374-2.374 42.54-42.54c1.906-1.906 2.449-4.637 1.417-7.127s-3.346-4.037-6.042-4.037H20v-3.356h60.16c2.695 0 5.01-1.547 6.042-4.037 1.031-2.49.489-5.221-1.417-7.127l-42.54-42.54 2.374-2.374 42.54 42.54c1.242 1.243 2.87 1.927 4.584 1.927 3.234 0 6.58-2.451 6.58-6.551V20h3.356v60.16c0 1.841.724 3.531 2.039 4.758a6.72 6.72 0 0 0 4.542 1.793c1.714 0 3.341-.684 4.584-1.927l42.54-42.54 2.374 2.374-42.54 42.54c-1.906 1.906-2.449 4.637-1.417 7.127 1.031 2.49 3.346 4.037 6.042 4.037H180v3.356h-60.16c-2.695 0-5.01 1.547-6.042 4.037s-.489 5.221 1.417 7.127l42.54 42.54-2.374 2.374-42.54-42.54c-1.242-1.243-2.87-1.927-4.584-1.927-3.234 0-6.58 2.451-6.58 6.551V180h-3.355zm-12.937-40.315-2.878-1.182-14.335 34.909 2.878 1.182 14.335-34.909zm46.443-113.097-2.878-1.182-14.335 34.909 2.878 1.182 14.335-34.909zM61.497 82.507 26.588 68.171l-1.182 2.878 34.909 14.335 1.182-2.877zm113.098 46.443-34.909-14.335-1.182 2.878 34.909 14.335 1.182-2.878zM61.604 117.728l-1.2-2.871-34.82 14.548 1.2 2.871 34.82-14.548zm112.813-47.132-1.2-2.871-34.821 14.548 1.2 2.871 34.821-14.548zM85.144 60.404 70.596 25.583l-2.871 1.2 14.548 34.821 2.871-1.2zm47.131 112.813-14.548-34.821-2.871 1.2 14.548 34.821 2.871-1.2z"></path>
    </g>
</svg>